<svg xmlns="http://www.w3.org/2000/svg" xmlns:xlink="http://www.w3.org/1999/xlink" version="1.1" style="" xml:space="preserve" width="53" height="53"><rect id="backgroundrect" width="100%" height="100%" x="0" y="0" fill="none" stroke="none"/>


























<g class="currentLayer" style=""><title>Layer 1</title><rect x="27" y="28" style="" width="2" height="18" id="svg_1" class="" fill="#707889" fill-opacity="1"/><rect x="37.5" y="2.8929998874664307" transform="matrix(0.7071,0.7071,-0.7071,0.7071,20.8223,-23.2696) " style="fill:#424A60;" width="2" height="21.21299934387207" id="svg_2" class=""/><rect x="37.27728706777829" y="3.115712819688145" transform="matrix(0.7071,0.7071,-0.7071,0.7071,20.8223,-23.2696) " style="" width="2" height="21.21299934387207" class="" id="svg_27" fill="#707889" fill-opacity="1"/><rect x="15" y="21.857999801635742" transform="matrix(0.7071,0.7071,-0.7071,0.7071,30.1421,-0.7696) " style="" width="2" height="28.284000396728516" id="svg_3" class="" fill="#707889" fill-opacity="1"/><rect x="10.722000122070312" y="13.5" transform="matrix(0.7071,0.7071,-0.7071,0.7071,15.6716,-8.8345) " style="" width="15.555999755859375" height="2" id="svg_4" class="" fill="#707889" fill-opacity="1"/><rect x="26.89299964904785" y="32.5" transform="matrix(0.7071,0.7071,-0.7071,0.7071,34.6716,-16.7046) " style="" width="21.21299934387207" height="2" id="svg_5" class="" fill="#707889" fill-opacity="1"/><circle style="" cx="47.68503937125206" cy="5" r="5" id="svg_6" class="" fill="#41e841" fill-opacity="1"/><circle style="" cx="28" cy="48" r="5" id="svg_7" class="" fill="#ababec" fill-opacity="1"/><circle style="" cx="5" cy="46" r="5" id="svg_8" class="" fill="#abecab" fill-opacity="1"/><circle style="" cx="12" cy="8" r="3" id="svg_9" class="" fill="#e98a8a" fill-opacity="1"/><circle style="" cx="44" cy="40" r="3" id="svg_10" class="" fill="#e8e841" fill-opacity="1"/><circle style="" cx="28" cy="24" r="7" id="svg_11" class="" fill="#599cc8" fill-opacity="1"/><g id="svg_12">
</g><g id="svg_13">
</g><g id="svg_14">
</g><g id="svg_15">
</g><g id="svg_16">
</g><g id="svg_17">
</g><g id="svg_18">
</g><g id="svg_19">
</g><g id="svg_20">
</g><g id="svg_21">
</g><g id="svg_22">
</g><g id="svg_23">
</g><g id="svg_24">
</g><g id="svg_25">
</g><g id="svg_26">
</g></g></svg>